<svg width="95" height="95" viewBox="0 0 95 95" fill="none" xmlns="http://www.w3.org/2000/svg">
<g clip-path="url(#clip0_1510_518)">
<path d="M47.5438 8.19409C48.8555 8.19409 49.9188 7.14607 49.9188 5.85327C49.9188 4.56047 48.8555 3.51245 47.5438 3.51245C46.2321 3.51245 45.1688 4.56047 45.1688 5.85327C45.1688 7.14607 46.2321 8.19409 47.5438 8.19409Z" fill="#FFAE3A"/>
<path d="M47.5441 91.408C48.8557 91.408 49.9191 90.3599 49.9191 89.0671C49.9191 87.7743 48.8557 86.7263 47.5441 86.7263C46.2324 86.7263 45.1691 87.7743 45.1691 89.0671C45.1691 90.3599 46.2324 91.408 47.5441 91.408Z" fill="#FFAE3A"/>
<path d="M87.3855 47.4602C87.3855 48.753 88.4488 49.801 89.7605 49.801C91.0722 49.801 92.1355 48.753 92.1355 47.4602C92.1355 46.1674 91.0722 45.1194 89.7605 45.1194C88.4488 45.1194 87.3855 46.1674 87.3855 47.4602Z" fill="#FFAE3A"/>
<path d="M2.96168 47.4602C2.96168 48.753 4.025 49.801 5.33667 49.801C6.64835 49.801 7.71167 48.753 7.71167 47.4602C7.71167 46.1674 6.64835 45.1194 5.33667 45.1194C4.025 45.1194 2.96168 46.1674 2.96168 47.4602Z" fill="#FFAE3A"/>
<path d="M67.4602 13.4572C68.594 14.1014 70.0465 13.7143 70.7045 12.5926C71.3625 11.4708 70.9769 10.0392 69.8432 9.39499C68.7095 8.75076 67.257 9.13788 66.5989 10.2596C65.9409 11.3814 66.3265 12.813 67.4602 13.4572Z" fill="#FFAE3A"/>
<path d="M25.248 85.524C26.3814 86.1679 27.8339 85.7803 28.4923 84.6583C29.1506 83.5362 28.7654 82.1046 27.632 81.4606C26.4986 80.8167 25.046 81.2043 24.3877 82.3263C23.7294 83.4484 24.1145 84.88 25.248 85.524Z" fill="#FFAE3A"/>
<path d="M82.0486 67.0929C81.3905 68.2147 81.7762 69.6463 82.9099 70.2905C84.0437 70.9348 85.4962 70.5477 86.1542 69.4259C86.8123 68.3041 86.4266 66.8725 85.2929 66.2283C84.1591 65.5841 82.7066 65.9712 82.0486 67.0929Z" fill="#FFAE3A"/>
<path d="M8.92963 25.4883C8.27051 26.61 8.65537 28.0407 9.78922 28.6839C10.9231 29.3271 12.3766 28.9393 13.0357 27.8177C13.6948 26.6961 13.31 25.2654 12.1761 24.6222C11.0422 23.9789 9.58874 24.3667 8.92963 25.4883Z" fill="#FFAE3A"/>
<path d="M82.0468 27.8253C82.7048 28.9471 84.1573 29.3342 85.2911 28.6899C86.4248 28.0457 86.8105 26.6141 86.1524 25.4923C85.4944 24.3705 84.0419 23.9834 82.9081 24.6277C81.7744 25.2719 81.3887 26.7035 82.0468 27.8253Z" fill="#FFAE3A"/>
<path d="M8.92984 69.4318C9.58816 70.5539 11.0407 70.9415 12.1741 70.2975C13.3076 69.6535 13.6927 68.2219 13.0344 67.0998C12.3761 65.9777 10.9236 65.5902 9.79012 66.2341C8.65668 66.8781 8.27152 68.3097 8.92984 69.4318Z" fill="#FFAE3A"/>
<path d="M67.4624 81.4587C66.3287 82.1029 65.943 83.5346 66.6011 84.6563C67.2591 85.7781 68.7116 86.1652 69.8454 85.521C70.9791 84.8767 71.3647 83.4451 70.7067 82.3234C70.0487 81.2016 68.5961 80.8145 67.4624 81.4587Z" fill="#FFAE3A"/>
<path d="M25.2474 9.39131C24.1135 10.0346 23.7287 11.4653 24.3878 12.5869C25.0469 13.7085 26.5004 14.0963 27.6342 13.453C28.7681 12.8098 29.1529 11.3791 28.4938 10.2575C27.8347 9.13586 26.3812 8.74807 25.2474 9.39131Z" fill="#FFAE3A"/>
<path fill-rule="evenodd" clip-rule="evenodd" d="M67.2805 48.9519H26.6389L19.0186 58.1316H74.9008L67.2805 48.9519Z" fill="#FFB224"/>
<path fill-rule="evenodd" clip-rule="evenodd" d="M62.1994 73.9207H31.7182L24.0979 62.905H69.8197L62.1994 73.9207Z" fill="#E99C00"/>
<path fill-rule="evenodd" clip-rule="evenodd" d="M64.7395 49.8699H29.1781L24.0979 57.2136H69.8197L64.7395 49.8699Z" fill="#FFE47C"/>
<path fill-rule="evenodd" clip-rule="evenodd" d="M29.1781 49.8699L32.0992 57.2136H24.0979L29.1781 49.8699Z" fill="#FFC966"/>
<path fill-rule="evenodd" clip-rule="evenodd" d="M64.7431 49.8699L61.822 57.2136H69.8234L64.7431 49.8699Z" fill="#FFC966"/>
<path fill-rule="evenodd" clip-rule="evenodd" d="M30.9589 33.4146C30.9589 33.4146 24.181 49.6065 40.9703 57.2119H52.0473C52.0473 57.2119 59.544 55.626 64.302 45.1058C64.302 45.1058 60.91 48.9346 58.5275 49.471C58.5275 49.471 65.431 41.4315 59.9808 31.8276C59.9808 31.8276 58.4768 28.8791 59.9808 25.2454C59.9808 25.2454 56.5015 27.4104 58.2481 35.1594C58.2481 35.1594 54.2041 24.9624 56.4785 19.1868C56.4785 19.1868 52.4345 20.2502 51.1231 24.7864C51.1231 24.7864 54.5767 15.4156 43.4393 7.25317C43.4393 7.25317 50.2303 17.3127 43.4393 23.6848C43.4393 23.6848 41.91 22.0249 43.6256 19.0032C43.6256 19.0032 33.5277 24.5953 35.5227 37.9133C35.5227 37.9133 33.3414 38.8531 30.9589 33.4146Z" fill="#A82900"/>
<path fill-rule="evenodd" clip-rule="evenodd" d="M45.9654 55.6128C45.9654 55.6128 35.0604 51.9641 35.0684 41.6597C35.0684 41.6597 36.3022 43.6411 40.6566 43.8628C40.6566 43.8628 37.2335 31.8911 44.1027 27.3394C44.1027 27.3394 43.1322 32.1971 45.1272 34.7749C45.1272 34.7749 44.9949 27.9744 48.8527 24.2183C48.8527 24.2183 48.4721 29.11 51.0879 32.0074C51.0879 32.0074 51.2351 29.688 52.9041 28.0737C52.9041 28.0737 53.6995 34.0178 55.5585 37.2534C57.5845 40.7798 56.1404 42.7117 55.3722 45.5342C55.3638 45.5655 57.8168 45.0793 60.3085 37.2534C60.3085 37.2534 59.99 47.2212 54.9066 52.7671C54.9066 52.7671 57.227 52.2064 59.1909 50.8382C59.1909 50.8382 52.6322 57.3494 45.9654 55.6128Z" fill="#FF6700"/>
<path fill-rule="evenodd" clip-rule="evenodd" d="M44.8901 47.093C44.8901 47.093 43.6145 38.4872 46.9572 35.0676C46.9572 35.0676 45.7513 41.3023 49.0812 43.8801C49.0812 43.8801 50.7807 41.3023 49.9195 38.7395C49.9195 38.7395 53.7921 44.0562 51.7356 47.6438C51.7356 47.6438 53.0781 47.8505 54.2969 46.5422C54.2969 46.5422 53.6369 52.7463 47.6842 53.5188C47.6842 53.5188 43.3297 52.624 42.0959 47.093C42.0959 47.093 44.4474 48.8296 44.8901 47.093Z" fill="#FFEB1D"/>
<path d="M74.901 58.0398H19.0186V62.9968H74.901V58.0398Z" fill="#DB8500"/>
</g>
<defs>
<clipPath id="clip0_1510_518">
<rect width="95" height="94" fill="white" transform="translate(0 0.666748)"/>
</clipPath>
</defs>
</svg>
