<svg width="200" height="200" viewBox="0 0 200 200" fill="none" xmlns="http://www.w3.org/2000/svg">
<g clip-path="url(#clip0_1504_244)">
<path d="M100.092 16.0156C102.854 16.0156 105.092 13.7858 105.092 11.0352C105.092 8.28452 102.854 6.05469 100.092 6.05469C97.331 6.05469 95.0924 8.28452 95.0924 11.0352C95.0924 13.7858 97.331 16.0156 100.092 16.0156Z" fill="#FFAE3A"/>
<path d="M100.093 193.066C102.854 193.066 105.093 190.837 105.093 188.086C105.093 185.335 102.854 183.105 100.093 183.105C97.3313 183.105 95.0928 185.335 95.0928 188.086C95.0928 190.837 97.3313 193.066 100.093 193.066Z" fill="#FFAE3A"/>
<path d="M183.969 99.5605C183.969 102.311 186.208 104.541 188.969 104.541C191.731 104.541 193.969 102.311 193.969 99.5605C193.969 96.8099 191.731 94.5801 188.969 94.5801C186.208 94.5801 183.969 96.8099 183.969 99.5605Z" fill="#FFAE3A"/>
<path d="M6.23487 99.5605C6.23487 102.311 8.47345 104.541 11.2349 104.541C13.9963 104.541 16.2349 102.311 16.2349 99.5605C16.2349 96.8099 13.9963 94.5801 11.2349 94.5801C8.47345 94.5801 6.23487 96.8099 6.23487 99.5605Z" fill="#FFAE3A"/>
<path d="M142.03 27.2054C144.421 28.5807 147.479 27.7646 148.86 25.3824C150.241 23.0003 149.421 19.9544 147.03 18.5791C144.638 17.2038 141.58 18.0199 140.2 20.4021C138.819 22.7842 139.638 25.8301 142.03 27.2054Z" fill="#FFAE3A"/>
<path d="M53.1631 180.538C55.5546 181.913 58.6125 181.097 59.9933 178.715C61.374 176.333 60.5546 173.287 58.1631 171.911C55.7717 170.536 52.7137 171.352 51.333 173.734C49.9523 176.116 50.7717 179.162 53.1631 180.538Z" fill="#FFAE3A"/>
<path d="M172.726 141.324C171.345 143.706 172.164 146.752 174.556 148.127C176.947 149.503 180.005 148.686 181.386 146.304C182.766 143.922 181.947 140.876 179.556 139.501C177.164 138.126 174.106 138.942 172.726 141.324Z" fill="#FFAE3A"/>
<path d="M18.7897 52.8021C17.4073 55.1833 18.2261 58.2273 20.6184 59.6012C23.0107 60.975 26.0707 60.1584 27.4531 57.7772C28.8354 55.396 28.0167 52.352 25.6244 50.9782C23.232 49.6043 20.1721 50.4209 18.7897 52.8021Z" fill="#FFAE3A"/>
<path d="M172.722 57.7922C174.103 60.1743 177.16 60.9905 179.552 59.6152C181.943 58.2399 182.763 55.1939 181.382 52.8117C180.001 50.4296 176.943 49.6135 174.552 50.9888C172.16 52.3641 171.341 55.4101 172.722 57.7922Z" fill="#FFAE3A"/>
<path d="M18.7902 146.318C20.1708 148.7 23.2288 149.516 25.6202 148.141C28.0117 146.766 28.8311 143.72 27.4504 141.337C26.0697 138.955 23.0118 138.139 20.6203 139.514C18.2289 140.89 17.4095 143.936 18.7902 146.318Z" fill="#FFAE3A"/>
<path d="M142.035 171.906C139.643 173.281 138.824 176.327 140.205 178.709C141.585 181.092 144.643 181.908 147.035 180.532C149.426 179.157 150.245 176.111 148.865 173.729C147.484 171.347 144.426 170.531 142.035 171.906Z" fill="#FFAE3A"/>
<path d="M53.1622 18.5724C50.7698 19.9463 49.9511 22.9903 51.3334 25.3715C52.7158 27.7527 55.7758 28.5693 58.1681 27.1954C60.5604 25.8216 61.3791 22.7776 59.9968 20.3964C58.6145 18.0152 55.5545 17.1986 53.1622 18.5724Z" fill="#FFAE3A"/>
<path fill-rule="evenodd" clip-rule="evenodd" d="M141.643 102.734H56.0818L40.0391 122.266H157.686L141.643 102.734Z" fill="#FFB224"/>
<path fill-rule="evenodd" clip-rule="evenodd" d="M130.946 155.859H66.7752L50.7324 132.422H146.989L130.946 155.859Z" fill="#E99C00"/>
<path fill-rule="evenodd" clip-rule="evenodd" d="M136.294 104.688H61.4276L50.7324 120.312H146.989L136.294 104.688Z" fill="#FFE47C"/>
<path fill-rule="evenodd" clip-rule="evenodd" d="M61.4276 104.688L67.5774 120.312H50.7324L61.4276 104.688Z" fill="#FFC966"/>
<path fill-rule="evenodd" clip-rule="evenodd" d="M136.301 104.688L130.152 120.312H146.997L136.301 104.688Z" fill="#FFC966"/>
<path fill-rule="evenodd" clip-rule="evenodd" d="M65.1767 69.6764C65.1767 69.6764 50.9073 104.127 86.2532 120.309H109.573C109.573 120.309 125.356 116.935 135.373 94.5512C135.373 94.5512 128.232 102.697 123.216 103.839C123.216 103.839 137.75 86.7336 126.275 66.2996C126.275 66.2996 123.109 60.0264 126.275 52.2949C126.275 52.2949 118.951 56.9014 122.628 73.3887C122.628 73.3887 114.114 51.693 118.902 39.4043C118.902 39.4043 110.388 41.667 107.628 51.3184C107.628 51.3184 114.898 31.3805 91.4512 14.0137C91.4512 14.0137 105.748 35.417 91.4512 48.9746C91.4512 48.9746 88.2316 45.443 91.8434 39.0137C91.8434 39.0137 70.5846 50.9117 74.7846 79.248C74.7846 79.248 70.1924 81.2477 65.1767 69.6764Z" fill="#A82900"/>
<path fill-rule="evenodd" clip-rule="evenodd" d="M96.7693 116.907C96.7693 116.907 73.8113 109.143 73.8281 87.2192C73.8281 87.2192 76.4256 91.4351 85.5928 91.9067C85.5928 91.9067 78.3864 66.4351 92.8477 56.7505C92.8477 56.7505 90.8046 67.086 95.0046 72.5708C95.0046 72.5708 94.7261 58.1017 102.848 50.1099C102.848 50.1099 102.047 60.5179 107.554 66.6825C107.554 66.6825 107.863 61.7476 111.377 58.313C111.377 58.313 113.052 70.9599 116.965 77.8442C121.231 85.3472 118.19 89.4575 116.573 95.463C116.555 95.5296 121.72 94.495 126.965 77.8442C126.965 77.8442 126.295 99.0523 115.593 110.852C115.593 110.852 120.478 109.659 124.612 106.748C124.612 106.748 110.805 120.602 96.7693 116.907Z" fill="#FF6700"/>
<path fill-rule="evenodd" clip-rule="evenodd" d="M94.5055 98.7793C94.5055 98.7793 91.82 80.4691 98.8575 73.1934C98.8575 73.1934 96.3186 86.4586 103.329 91.9434C103.329 91.9434 106.907 86.4586 105.094 81.0059C105.094 81.0059 113.247 92.318 108.917 99.9512C108.917 99.9512 111.744 100.391 114.309 97.6074C114.309 97.6074 112.92 110.808 100.388 112.451C100.388 112.451 91.2206 110.547 88.6232 98.7793C88.6232 98.7793 93.5736 102.474 94.5055 98.7793Z" fill="#FFEB1D"/>
<path d="M157.686 122.07H40.0391V132.617H157.686V122.07Z" fill="#DB8500"/>
</g>
<defs>
<clipPath id="clip0_1504_244">
<rect width="200" height="200" fill="white"/>
</clipPath>
</defs>
</svg>
